<svg width="65" height="65" viewBox="0 0 65 65" fill="none" xmlns="http://www.w3.org/2000/svg">
<path d="M51.646 38.5668C50.8606 39.3522 49.6147 39.3522 48.8564 38.5668C48.071 37.7814 48.071 36.5356 48.8564 35.7773C54.2731 30.3606 54.2731 21.5585 48.8564 16.1689C43.4397 10.7793 34.6376 10.7523 29.2481 16.1689C23.8585 21.5856 23.8314 30.3877 29.2481 35.7773C30.0335 36.5627 30.0335 37.8085 29.2481 38.5668C28.4626 39.3522 27.2168 39.3522 26.4585 38.5668C19.4981 31.6064 19.4981 20.2856 26.4585 13.3523C33.4189 6.41892 44.7397 6.39183 51.6731 13.3523C58.6064 20.3127 58.6064 31.6064 51.646 38.5668Z" fill="#26AD60"/>
<path opacity="0.4" d="M51.6466 13.3519C58.607 20.3123 58.607 31.606 51.6466 38.5664C49.2633 40.9497 46.3383 42.5205 43.2779 43.2789C44.7133 37.4289 43.1424 31.0101 38.5654 26.4332C33.9883 21.8561 27.5695 20.2852 21.7196 21.7207C22.4779 18.6602 24.0217 15.7352 26.4321 13.3519C33.3924 6.39149 44.6862 6.39149 51.6466 13.3519Z" fill="#26AD60"/>
<path d="M13.3539 26.4333C14.1394 25.6479 15.3852 25.6479 16.1435 26.4333C16.929 27.2188 16.929 28.4646 16.1435 29.2229C10.7269 34.6396 10.7269 43.4417 16.1435 48.8313C21.5602 54.2209 30.3623 54.2479 35.7519 48.8313C41.1414 43.4146 41.1685 34.6125 35.7519 29.2229C34.9664 28.4375 34.9664 27.1917 35.7519 26.4333C36.5373 25.6479 37.7831 25.6479 38.5414 26.4333C45.5019 33.3938 45.5019 44.7146 38.5414 51.6479C31.581 58.5813 20.2602 58.6084 13.3269 51.6479C6.39355 44.6875 6.39352 33.3938 13.3539 26.4333Z" fill="#26AD60"/>
<path opacity="0.5" d="M38.5653 26.4331C43.1424 31.0102 44.7132 37.429 43.2778 43.279C42.5194 46.3394 40.9486 49.2644 38.5653 51.6477C31.6049 58.6081 20.311 58.6081 13.3506 51.6477C6.39015 44.6873 6.39015 33.3935 13.3506 26.4331C15.7339 24.0227 18.6589 22.4789 21.7193 21.7206C27.5694 20.2852 33.9882 21.856 38.5653 26.4331Z" fill="#26AD60"/>
</svg>
