<svg width="65" height="65" viewBox="0 0 65 65" fill="none" xmlns="http://www.w3.org/2000/svg">
<path d="M36.0208 21.9647L39.5958 29.1147C40.0833 30.0897 41.3833 31.0647 42.4666 31.2272L48.9395 32.3106C53.0833 33.0147 54.0583 35.9939 51.0791 38.9731L46.0416 44.0106C45.202 44.8502 44.7145 46.5022 44.9854 47.6939L46.4208 53.9502C47.5583 58.8793 44.9312 60.8022 40.5708 58.2293L34.5041 54.6272C33.3937 53.9772 31.6062 53.9772 30.4958 54.6272L24.429 58.2293C20.0686 60.8022 17.4415 58.8793 18.579 53.9502L20.0145 47.6939C20.2853 46.5293 19.7978 44.8772 18.9582 44.0106L13.9207 38.9731C10.9416 35.9939 11.9165 32.9877 16.0603 32.3106L22.5332 31.2272C23.6165 31.0377 24.9165 30.0897 25.404 29.1147L28.9791 21.9647C30.902 18.0918 34.0979 18.0918 36.0208 21.9647Z" fill="#26AD60"/>
<path opacity="0.4" d="M16.25 26.4063C15.1396 26.4063 14.2188 25.4855 14.2188 24.3751V5.41675C14.2188 4.30633 15.1396 3.3855 16.25 3.3855C17.3604 3.3855 18.2812 4.30633 18.2812 5.41675V24.3751C18.2812 25.4855 17.3604 26.4063 16.25 26.4063Z" fill="#26AD60"/>
<path opacity="0.4" d="M48.75 26.4063C47.6396 26.4063 46.7188 25.4855 46.7188 24.3751V5.41675C46.7188 4.30633 47.6396 3.3855 48.75 3.3855C49.8604 3.3855 50.7812 4.30633 50.7812 5.41675V24.3751C50.7812 25.4855 49.8604 26.4063 48.75 26.4063Z" fill="#26AD60"/>
<path opacity="0.4" d="M32.5 12.8647C31.3896 12.8647 30.4688 11.9438 30.4688 10.8334V5.41675C30.4688 4.30633 31.3896 3.3855 32.5 3.3855C33.6104 3.3855 34.5312 4.30633 34.5312 5.41675V10.8334C34.5312 11.9438 33.6104 12.8647 32.5 12.8647Z" fill="#26AD60"/>
</svg>
