<svg width="65" height="65" viewBox="0 0 65 65" fill="none" xmlns="http://www.w3.org/2000/svg">
<path d="M45.3651 9.64175V5.41675C45.3651 4.30633 44.4443 3.3855 43.3339 3.3855C42.2234 3.3855 41.3026 4.30633 41.3026 5.41675V9.47925H23.6985V5.41675C23.6985 4.30633 22.7777 3.3855 21.6673 3.3855C20.5568 3.3855 19.636 4.30633 19.636 5.41675V9.64175C12.3235 10.3188 8.7756 14.6792 8.23393 21.1522C8.17977 21.9376 8.82977 22.5876 9.5881 22.5876H55.413C56.1984 22.5876 56.8484 21.9105 56.7672 21.1522C56.2255 14.6792 52.6776 10.3188 45.3651 9.64175Z" fill="#26AD60"/>
<path opacity="0.4" d="M56.875 29.3585V34.071C56.875 35.7231 55.4125 36.996 53.7875 36.7252C53.0292 36.6168 52.2437 36.5356 51.4583 36.5356C43.2521 36.5356 36.5625 43.2252 36.5625 51.4314C36.5625 52.6773 37.05 54.4106 37.5646 55.9814C38.1604 57.7418 36.8604 59.5564 34.9917 59.5564H21.6667C12.1875 59.5564 8.125 54.1398 8.125 46.0148V29.3314C8.125 27.8419 9.34375 26.623 10.8333 26.623H54.1667C55.6562 26.6501 56.875 27.8689 56.875 29.3585Z" fill="#26AD60"/>
<path d="M51.4583 40.625C45.4729 40.625 40.625 45.4729 40.625 51.4583C40.625 53.4896 41.1937 55.4125 42.1958 57.0375C44.0646 60.1792 47.5042 62.2917 51.4583 62.2917C55.4125 62.2917 58.8521 60.1792 60.7208 57.0375C61.7229 55.4125 62.2917 53.4896 62.2917 51.4583C62.2917 45.4729 57.4437 40.625 51.4583 40.625ZM57.0646 50.2937L51.2958 55.6292C50.9167 55.9813 50.4021 56.1708 49.9146 56.1708C49.4 56.1708 48.8854 55.9813 48.4792 55.575L45.7979 52.8938C45.0125 52.1083 45.0125 50.8083 45.7979 50.0229C46.5833 49.2375 47.8833 49.2375 48.6687 50.0229L49.9688 51.3229L54.3021 47.3146C55.1146 46.5562 56.4146 46.6104 57.1729 47.4229C57.9313 48.2354 57.8771 49.5083 57.0646 50.2937Z" fill="#26AD60"/>
<path d="M23.0208 40.6246C22.3167 40.6246 21.6125 40.3267 21.0979 39.8392C20.6104 39.3246 20.3125 38.6205 20.3125 37.9163C20.3125 37.2121 20.6104 36.508 21.0979 35.9934C21.7208 35.3705 22.6687 35.0725 23.5625 35.2621C23.725 35.2892 23.8875 35.3434 24.05 35.4246C24.2125 35.4788 24.375 35.56 24.5375 35.6684C24.6729 35.7767 24.8083 35.885 24.9437 35.9934C25.4312 36.508 25.7292 37.2121 25.7292 37.9163C25.7292 38.6205 25.4312 39.3246 24.9437 39.8392C24.8083 39.9475 24.6729 40.0559 24.5375 40.1642C24.375 40.2725 24.2125 40.3538 24.05 40.408C23.8875 40.4892 23.725 40.5434 23.5625 40.5705C23.3729 40.5975 23.1833 40.6246 23.0208 40.6246Z" fill="#26AD60"/>
<path d="M32.5 40.6247C31.7959 40.6247 31.0917 40.3268 30.5771 39.8393C30.0896 39.3247 29.7917 38.6206 29.7917 37.9164C29.7917 37.2122 30.0896 36.5083 30.5771 35.9937C31.6063 34.9917 33.4209 34.9917 34.4229 35.9937C34.9104 36.5083 35.2084 37.2122 35.2084 37.9164C35.2084 38.6206 34.9104 39.3247 34.4229 39.8393C33.9084 40.3268 33.2042 40.6247 32.5 40.6247Z" fill="#26AD60"/>
<path d="M23.0208 50.1038C22.3167 50.1038 21.6125 49.8059 21.0979 49.3184C20.6104 48.8038 20.3125 48.0997 20.3125 47.3955C20.3125 46.6913 20.6104 45.9872 21.0979 45.4726C21.3687 45.2288 21.6396 45.0393 21.9917 44.9038C22.9937 44.4705 24.1854 44.7143 24.9437 45.4726C25.4312 45.9872 25.7292 46.6913 25.7292 47.3955C25.7292 48.0997 25.4312 48.8038 24.9437 49.3184C24.4292 49.8059 23.725 50.1038 23.0208 50.1038Z" fill="#26AD60"/>
</svg>
