<svg width="65" height="65" viewBox="0 0 65 65" fill="none" xmlns="http://www.w3.org/2000/svg">
<path opacity="0.4" d="M48.8583 36.6978C47.7208 37.8083 47.0708 39.4062 47.2333 41.1124C47.4771 44.0374 50.1583 46.177 53.0833 46.177H58.2292V49.3999C58.2292 55.0062 53.6521 59.5832 48.0458 59.5832H16.9542C11.3479 59.5832 6.77084 55.0062 6.77084 49.3999V31.1728C6.77084 25.5666 11.3479 20.9895 16.9542 20.9895H48.0458C53.6521 20.9895 58.2292 25.5666 58.2292 31.1728V35.0728H52.7583C51.2417 35.0728 49.8604 35.6687 48.8583 36.6978Z" fill="#26AD60"/>
<path d="M40.2188 10.6983V20.99H16.9542C11.3479 20.99 6.77084 25.5671 6.77084 31.1733V21.2338C6.77084 18.0109 8.74793 15.1399 11.7542 14.0024L33.2583 5.8774C36.6167 4.63157 40.2188 7.09623 40.2188 10.6983Z" fill="#26AD60"/>
<path d="M61.1022 37.836V43.4151C61.1022 44.9047 59.9105 46.1235 58.3938 46.1777H53.0855C50.1605 46.1777 47.4792 44.0381 47.2355 41.1131C47.073 39.4068 47.723 37.8089 48.8605 36.6985C49.8626 35.6693 51.2438 35.0735 52.7605 35.0735H58.3938C59.9105 35.1277 61.1022 36.3464 61.1022 37.836Z" fill="#26AD60"/>
<path d="M37.9167 34.5312H18.9583C17.8479 34.5312 16.9271 33.6104 16.9271 32.5C16.9271 31.3896 17.8479 30.4688 18.9583 30.4688H37.9167C39.0271 30.4688 39.9479 31.3896 39.9479 32.5C39.9479 33.6104 39.0271 34.5312 37.9167 34.5312Z" fill="#26AD60"/>
</svg>
