<svg width="40" height="40" viewBox="0 0 40 40" fill="none" xmlns="http://www.w3.org/2000/svg">
<path d="M20 38.75C30.3553 38.75 38.75 30.3553 38.75 20C38.75 9.64466 30.3553 1.25 20 1.25C9.64466 1.25 1.25 9.64466 1.25 20C1.25 30.3553 9.64466 38.75 20 38.75Z" stroke="#DDBB36" stroke-width="2.3" stroke-linecap="round" stroke-linejoin="round"/>
<path d="M15.6731 15.6731C15.6731 14.8173 15.9268 13.9808 16.4023 13.2692C16.8777 12.5576 17.5535 12.0031 18.3441 11.6756C19.1348 11.3481 20.0048 11.2624 20.8441 11.4293C21.6835 11.5963 22.4545 12.0084 23.0596 12.6135C23.6647 13.2187 24.0768 13.9896 24.2438 14.829C24.4107 15.6683 24.325 16.5383 23.9975 17.329C23.67 18.1196 23.1155 18.7954 22.4039 19.2708C21.6923 19.7463 20.8558 20 20 20V22.8847" stroke="#DDBB36" stroke-width="2.3" stroke-linecap="round" stroke-linejoin="round"/>
<path d="M20 30.0961C19.6017 30.0961 19.2788 29.7732 19.2788 29.375C19.2788 28.9767 19.6017 28.6538 20 28.6538" stroke="#DDBB36" stroke-width="2.3" stroke-linecap="round" stroke-linejoin="round"/>
<path d="M20 30.0961C20.3983 30.0961 20.7212 29.7732 20.7212 29.375C20.7212 28.9767 20.3983 28.6538 20 28.6538" stroke="#DDBB36" stroke-width="2.3" stroke-linecap="round" stroke-linejoin="round"/>
</svg>
